<?xml version="1.0" encoding="UTF-8"?>
<svg id="Capa_2" data-name="Capa 2" xmlns="http://www.w3.org/2000/svg" viewBox="0 0 771.28 804.83">
  <g id="Capa_1-2" data-name="Capa 1">
    <g>
      <path d="m314.63,364.14c24.88-4.19,49.8-8.38,74.71-12.58-25.97-4.49-51.72-1.42-78.27,1.2-2.95-6.31-6.05-12.93-9.32-19.92-.53,7.77.11,16.57-2.33,24.02-2.53,7.72-8.45,14.52-12.33,21.6-8.11,14.79-9.2,28.67-10.17,45.1-14.5,5.47-29.88,11.28-45.4,17.15-15.22-7.11-30.71-16.89-48.03-16.86-17.3.03-33.01,9.58-50.35,10.89-29.48,2.23-57.6-9.67-79.11-29.41,12.64-2.15,25.65-.69,38.49-3.37,12.71-2.66,25.03-6.81,37.05-11.68,13.31-5.4,26.37-11.48,39.15-18.03,11.42-5.85,25.04-17.79,37.24-20.89,9.98-2.53,18.53,4.6,29.34-.58,11.53-5.52,20.01-17.66,28.6-26.75,15.05-15.93,43.07-37.1,46.39-60.49-24.62,28.85-54.57,51.68-83.38,75.45-30.63-1.76-56.84-28.08-79.45-46.1-11.07-8.82-20.54-13.96-34.36-16.89-15.4-3.27-23.64-7.78-35.71-18.04-11.2,0-22.4,0-33.6,0-7.85,0-19.46,2.56-23.33-5.91-3.84-8.4-.7-23.5-.7-32.59,0-12.93,0-25.86,0-38.78,0-24.93.01-49.86.02-74.79,0-12,0-24.01,0-36.01,0-8.85-3.31-25.38,1.19-33.26,3.73-6.53,15.52-9.89,21.92-13.19,10.28-5.32,20.5-10.75,30.75-16.13C84.67,1.5,90.43-1.62,102.73.86c12.37,2.49,24.74,5.01,37.11,7.54,11.48,2.35,22.96,4.72,34.44,7.09,8.14,1.68,25.9,1.58,31.79,7.6,5.55,5.68,2.4,19.64,2.4,26.95,0,12.99,0,25.97,0,38.96,0,27.83,0,55.66-.02,83.48-.02,25.13,4.14,54.78-2.6,78.98h-33.21v4.98c15.69,5.04,31.36,10.08,47.58,15.3,2.43-2.98,4.61-5.66,6.92-8.5,7.27,5.34,13.94,10.23,20.61,15.13.38-.25.75-.5,1.13-.75-4.7-6.67-9.4-13.34-14.4-20.44,19.05-18.68,38.24-37.5,57.86-56.74-25.81,11.2-46.33,28.73-65.58,48.14,8.6-25.18,26.09-55.07,50.61-67.79,26.72-13.86,62.47,6.68,88.17,15.19-16.24-10.7-34.95-17.51-52.69-25.75-.96-9.42-.48-20.74-4-29.7-3.49-8.88-11.38-12.56-19.26-17.02,5.34-2.21,10.37-4.28,15.57-6.43,18.8,2.23,37.49,1.99,55.07-7.77h-49.77c2.3-11.73,7.39-22.12,14.76-31.56,6.01-7.71,8.66-13.42,13.41-21.76,9.28-16.27,27.49-27.63,45.82-30.48,21.96-3.41,43.01,3.88,56.14,22.16,11.73,16.34,15.76,39.95,39.9,40.74-24.5,14.53-42.7,2.14-58.15-16.67-9.77-11.9-39.31-25.49-53.61-13.54,21.65,3.92,39.89,11.94,47.81,34.21,3.62,10.18,2.91,20.72,3.45,31.34.69,13.85,3.36,23.76,8.7,36.38h-34.82c-.12.36-.24.73-.36,1.09,3.35,3.05,6.69,6.11,10.97,10.01-1.91,9.52-3.9,19.49-5.82,29.1,5.35-2.04,8.97-5.94,14.66-16.3,5.35,2.89,10.7,5.78,16.88,9.12-2.79,14.8-6.45,28.49-11.26,42.73,10.59-9.9,17.53-21.16,22.46-32.66,6.08,5.43,12.36,11.04,18.71,16.71-13.08,25.49-19.09,52.04-20.74,80.02,13.64-38.76,26.96-76.04,53.66-108.07,26.93-32.3,57.44-49.52,99.58-51.85-1.3,9.09-2.57,17.94-3.84,26.79l1.56.55c8.09-25.2,20.19-47.04,47.61-57.18-.88,13.24-1.72,25.88-2.63,39.51,12.23-10.73,23.81-20.89,35.39-31.04,3.71,12.8.11,28.74-9.48,40.06,7.12,6.86,14.5,13.54,21.25,20.78,7.05,7.57,9.07,12.02,10.58,21.87,2.65,17.28,20.74,33.07,31.12,46.23,5.94,7.54,14.45,15.69,18.88,24.2,4.73,9.09.04,16.96-3.1,25.97-4.78,13.7-9.04,19.72-24.3,20.38-5.27,8.21-12.85,6.92-20.88,4.41-5.32-1.66-14.59-2.84-18.21-7.54-4.18-5.43-1.08-12.82-6.15-18.49-5.61-6.26-17.85-10.21-25.38-13.97-14.94-7.46-31.71-1.78-46.15-10.98-13.31-8.47-16.74-22.63-19.6-37.12-5.9,8.81-2.45,23.83,2.09,32.38,6.21,11.68,17.81,18.32,29.77,22.9,6.05,29.89,20.17,56.95,34.11,83.77,14.38,27.66,16.58,53.62,13.42,84.18.44.2.88.41,1.33.61,3.98-8.15,7.96-16.29,11.94-24.44l-1.12-.76c19.37-10.47,47.95-31.71,67.4-12.31,7.66,7.64,9.57,17.37,11.28,27.62,2.37,14.15,5.44,28.14,9.6,41.87,3.63,11.98,10.98,24.5,12.11,36.98,1.19,13.13-6.83,22.78-13.39,33.32-6.65,10.68-12.76,22.38-21.71,31.37-9.44,9.49-21.91,15.96-32.98,23.32-3.3-16.23-6.59-32.19-3.66-48.83,2.86-16.24,17.48-17.73,31.19-22.98-.53-3.94-3.8-6.93-4.87-10.97-1.95-7.37-.79-15.96-2-23.53-2.29-14.34-5.06-29.24-11.28-42.41-9.1,7.78-18.28,15.48-27.33,23.33-9.62,8.35-12.72,12.26-25.4,8.62-22.03-6.31-44.02-12.56-63.41-24.73,6.23,28.93,53.79,26.18,74.42,38.13,28.14,16.29,9.46,48.08-.37,69.59-6.85,14.98-13.48,30.13-18.29,45.91-1.68,5.52-2.19,13.09-6.82,17.03-4.52,3.85-12.7,4.73-18,7.81-10.37,6.02-18.55,18.64-30.46,21.42-13.07,3.06-30.83,1.75-44.23.98,3.45-13.21,5.99-26.86,12.21-39.15,2.5-4.93,5.97-11.42,10.58-14.72,6.39-4.56,14.87-1.84,22.1-1,3.11,2.7,5.64,4.89,8.89,7.71,2.95-5.66,2.86-11.5,5.77-17.15,3.44-6.68,9.59-11.9,13.81-18.08,9.48-13.87,13.12-27.8,13.12-44.32-25.46,0-51.03.48-76.47.2-24.62-.27-34.28-15.33-51.39-30.15,2.98,12.61,9.75,22.86,18.28,32.63-9.84,3.82-19.69,7.65-29.53,11.48-7.35,2.85-18.8,10.3-26.65,9.87-12.67-.7-23.97-19.63-23.78-30.91-9.6,12.15,1.35,31.65,12.66,38.97,5.83,3.77,12.42,1.99,18.54,4.39,7.43,2.91,8.64,10.21,11.61,16.98-36.27,8.59-86.51-.26-105.05-8.96,3.78-18.77,12.52-38.75,12.63-57.97.1-17.25-4.39-34.43-4.39-51.7,10.74-2.35,21.44-4.69,32.14-7.02,0-.29,0-.59,0-.88-10.62-1.11-21.24-2.21-32.26-3.36,2.13-12,4.24-23.86,6.34-35.71l-1.43-.6c-6.91,15.06-14.37,29.06-14.89,46.02-.52,17.01,4.81,33.62,4.76,50.63-.05,16.47-4.33,33.13-8.25,49.03-4.32,17.54.31,21.41,15.5,29.43-9.95,35.94-38.96,55.65-67.23,77.22,17.01,24.35,42.42,43.7,64.33,63.74,9.02,8.25,19.36,12.71,28.58,20.22,10.27,8.36,16.77,22.35,23.97,33.29h-68.41c-1-6.6-2.01-13.23-3.19-20.97-5.31-.73-14.37-.06-18.62-3.31-4.51-3.45-5.36-10.64-8.47-15.44-6.64-10.26-17.18-17.88-26.49-25.54-12.17-10.02-24.69-19.58-37.19-29.18-10.41-7.99-23.97-15.4-13.85-28.99,3.6-4.83,8.2-8.62,11.34-13.86,3.54-5.92,4.83-11.25,9.49-16.34,9.13-9.97,18.55-18.6,26.01-30.07,15.16-23.28,25.18-54.87,18.65-82.55-5.91,29.98-13.91,58.56-33.43,82.83-19.91,24.77-47.05,37.27-75.84,48.91-13.34,5.39-31,8.78-42.05,18.42-10.3,8.99-14.09,25.81-19.23,38.02-3.06,7.27-8.59,15.92-9.75,23.73-1.19,8.02,3.71,10.52,8.67,15.89,10.3,11.16,16.4,24.67,22.37,38.47h-66.03c2.25-11.16,7.33-21-2.5-28.86-13.38-10.7-9.25-15.83-3.07-30.94,6.31-15.43,12.58-30.8,15.52-47.29,2.14-12.03-.76-29.66,7.55-39.5,8.56-10.13,23.74-13.96,33.14-24.16,9.94-10.79,13.65-23.31,11.81-37.76-2.01-15.85-6.62-31.38-7.38-47.41-.8-16.92,4.46-31.22,10.56-46.65-28.56-.97-40.71,21.1-42.48,46.36-1.82,25.92-4.39,52.65-22.24,73.04-31.86,36.38-88.4,34.68-121.93,2.41,51.61,1.66,83.27-35.92,85.21-85.48-7.98,28.28-29.68,60.77-62.53,58.23,22.7-13.15,29.11-28.65,33.11-53.96,3.24-20.5,8.88-39.98,23.56-55.42,31.42-33.05,85.07-30.72,120.46-5.8,20.83-24.31,45.87-35.41,76.16-43.72,7.33-2.01,10.81-2.94,17.7.17,6.28,2.84,12.21,6.07,18.83,8.16,14.82,4.66,30.54,5.64,45.96,4.29-19.45-5.57-44.46-11.81-60.41-24.82-16.62-13.56,1.79-36.23,9.32-50.06,2.06-3.77,4.58-7.29,7.26-11.51ZM106.92,21.59v213.82c28.66-.93,57.03-1.86,85.75-2.79V38.81c-28.46-5.72-56.97-11.44-85.75-17.22Zm-19.21-5.81v224.29c2.75-1.2,5.13-2.25,7.62-3.34V19.09c-2.35-1.02-4.73-2.05-7.62-3.3Zm362.52,489.84c.35.15.7.3,1.04.45,7.2-17.54,14.27-35.21,19.33-53.51,3.93-14.22,9.91-31.96,1.35-45.51-14.54-23.01-51.28-43.12-78.79-35.22,4.9,3.73,13.64,4.45,19.54,6.82,7.4,2.98,14.54,6.59,21.44,10.58,10.72,6.2,23.98,13.18,29.13,25.15,5.26,12.24,1.09,27.46-1.55,39.9-3.65,17.15-7.65,34.23-11.49,51.35Zm85.77-311.08c-46.95,39.86-68.87,92.47-77.75,152.11h9.29c10.77-56.3,32.85-107.22,68.46-152.11Zm93.78,5.41c4.14,4.75,8.17,9.57,12.45,14.14,4.74,5.06,17.44,2.45,23.67,2.45-3.61-4.36-8.67-13.85-14-16.02-5.99-2.44-15.82-.56-22.12-.56Zm84.23,75.04c-.53,8.56,2.77,15.49,8.16,17.62,1.12-10.92-.27-14.06-8.16-17.62Z" fill="#fff"/>
      <path d="m187.6,178.67c-.1,16.56-3.44,27.17-12.02,35.8-13.06,13.14-32.31,13.62-46.08,1.13-18.23-16.54-21.47-45.98-7.07-64.1,14.49-18.22,39.45-18.21,53.99.1,7.35,9.26,11.27,19.78,11.18,27.06Zm-48.72,9.99c-4.6,3.68-8.98,7.18-13.94,11.14,3.89,4.45,7.53,8.63,11.78,13.5,2.9-7.3,5.31-13.38,7.25-18.26-1.79-4.76-2.27-3.92-3.64-7.55m-6.99-35.99c-3.75,5.26-6.91,9.7-10.36,14.54,6.89,2.88,12.79,5.35,18.87,7.9,1.34-1.44,2.65-2.85,4.06-4.37-4.08-5.86-7.93-11.4-12.57-18.06Zm25.6,19.71c4.44-3.31,8.61-6.42,13.66-10.18-5.23-4.59-9.81-8.62-14.39-12.65-.42.3-.85.6-1.27.9-.79,6.5-1.57,13-2.38,19.68,1.38.71,2.67,1.36,4.38,2.24Zm2.09,22.66c3.38,4.12,6.72,8.18,10.92,13.29,2.49-6.56,4.45-11.73,6.39-16.86-5.65-2.09-10.07-3.72-14.27-5.27-.83,2.41-1.88,5.47-3.04,8.85Zm-9.61-2.97c5.29-1.76,7.64-4.82,7.03-9.16-2.27-16.15-25.67,3.44-7.03,9.16Z" fill="#fff"/>
      <path d="m187.57,86.94c-.05,16.6-4.44,28.05-15.22,36.33-12.76,9.8-30.6,8.28-43.28-3.28-14.02-12.78-19.54-36.57-12.52-54,10.67-26.51,42.01-30.99,59.62-8.45,7.46,9.55,11.54,20.38,11.39,29.4Zm-49.14,6.86c-4.22,3.34-8.6,6.79-13.48,10.65,3.93,4.58,7.54,8.77,11.7,13.62,2.87-7.17,5.29-13.24,7.24-18.12-1.72-4.69-2.12-3.94-3.45-7.58m-17.52-22.27c6.97,3.2,13.04,5.99,19.17,8.8,1.32-1.43,2.42-2.62,3.65-3.94-3.9-6.09-7.68-11.99-11.93-18.63-3.85,4.86-7.19,9.1-10.88,13.76Zm49.97-2.75c-5.07-4.71-9.52-8.86-14.94-13.9-1.32,8.1-2.36,14.52-3.44,21.14,1.51.84,2.92,1.62,4.52,2.51,4.2-2.95,8.36-5.88,13.87-9.74Zm5.54,29.36c-5.8-2.45-10.3-4.36-14.43-6.1-.92,2.76-1.95,5.82-3.07,9.18,3.02,3.99,6.29,8.31,10.3,13.61,2.63-6.09,4.86-11.27,7.2-16.68Zm-27.34-.73c3.67.21,7.09-3.11,7.38-7.16.49-6.9-8.72-11.21-12.87-5.28-3.06,4.37-.01,12.13,5.49,12.45Z" fill="#fff"/>
    </g>
  </g>
</svg>